<svg xmlns="http://www.w3.org/2000/svg" width="16" height="16" viewBox="0 0 24 24">
  <path fill="#CED0D6"
        d="m6.272 22.414 4.2-4.2.929.93a1 1 0 1 0 1.414-1.414l-.774-.775 8.8-5.869a1 1 0 0 0 .445-.832V3.707a1 1 0 0 0-1-1h-6.539a1 1 0 0 0-.832.445l-5.869 8.8-.774-.774A1 1 0 1 0 4.858 12.6l.93.93-4.2 4.2a1 1 0 0 0 0 1.414l3.272 3.272a1 1 0 0 0 1.412-.002zm8.01-17.707h5.011v5.01L10.6 15.511l-2.113-2.113zM7.2 14.94l1.86 1.86-3.495 3.5-1.858-1.865z"
        fill-rule="evenodd" clip-rule="evenodd"
  />
</svg>